<mxfile host="app.diagrams.net" modified="2021-09-02T06:34:33.361Z" agent="5.0 (Macintosh; Intel Mac OS X 11_5_0) AppleWebKit/537.36 (KHTML, like Gecko) Chrome/87.0.4280.88 Safari/537.36" etag="U3kZji66MT7AMEqafDu0" version="15.0.5" type="github">
  <diagram id="9KHc1_BPApXsyWFQziXx" name="Page-1">
    <mxGraphModel dx="786" dy="454" grid="1" gridSize="10" guides="1" tooltips="1" connect="1" arrows="1" fold="1" page="1" pageScale="1" pageWidth="827" pageHeight="1169" math="0" shadow="0">
      <root>
        <mxCell id="0" />
        <mxCell id="1" parent="0" />
        <mxCell id="g5eA6v_6zcaxkkMn7qFf-1" value="会员" style="html=1;" vertex="1" parent="1">
          <mxGeometry x="50" y="60" width="110" height="50" as="geometry" />
        </mxCell>
        <mxCell id="g5eA6v_6zcaxkkMn7qFf-11" style="edgeStyle=orthogonalEdgeStyle;rounded=0;orthogonalLoop=1;jettySize=auto;html=1;exitX=0;exitY=0.5;exitDx=0;exitDy=0;entryX=1;entryY=0.5;entryDx=0;entryDy=0;startArrow=classicThin;startFill=1;" edge="1" parent="1" source="g5eA6v_6zcaxkkMn7qFf-2" target="g5eA6v_6zcaxkkMn7qFf-1">
          <mxGeometry relative="1" as="geometry" />
        </mxCell>
        <mxCell id="g5eA6v_6zcaxkkMn7qFf-2" value="标签" style="html=1;" vertex="1" parent="1">
          <mxGeometry x="210" y="200" width="110" height="50" as="geometry" />
        </mxCell>
        <mxCell id="g5eA6v_6zcaxkkMn7qFf-7" style="edgeStyle=orthogonalEdgeStyle;rounded=0;orthogonalLoop=1;jettySize=auto;html=1;exitX=0;exitY=0.5;exitDx=0;exitDy=0;entryX=1;entryY=0.5;entryDx=0;entryDy=0;startArrow=diamond;startFill=1;" edge="1" parent="1" source="g5eA6v_6zcaxkkMn7qFf-3" target="g5eA6v_6zcaxkkMn7qFf-2">
          <mxGeometry relative="1" as="geometry" />
        </mxCell>
        <mxCell id="g5eA6v_6zcaxkkMn7qFf-3" value="群组" style="html=1;" vertex="1" parent="1">
          <mxGeometry x="450" y="200" width="110" height="50" as="geometry" />
        </mxCell>
        <mxCell id="g5eA6v_6zcaxkkMn7qFf-12" value="1" style="whiteSpace=wrap;html=1;" vertex="1" parent="1">
          <mxGeometry x="180" y="75" width="40" height="20" as="geometry" />
        </mxCell>
        <mxCell id="g5eA6v_6zcaxkkMn7qFf-13" value="&amp;nbsp;N" style="whiteSpace=wrap;html=1;" vertex="1" parent="1">
          <mxGeometry x="180" y="180" width="40" height="20" as="geometry" />
        </mxCell>
        <mxCell id="g5eA6v_6zcaxkkMn7qFf-17" value="N" style="whiteSpace=wrap;html=1;" vertex="1" parent="1">
          <mxGeometry x="320" y="190" width="40" height="20" as="geometry" />
        </mxCell>
        <mxCell id="g5eA6v_6zcaxkkMn7qFf-20" value="1" style="whiteSpace=wrap;html=1;" vertex="1" parent="1">
          <mxGeometry x="410" y="190" width="40" height="20" as="geometry" />
        </mxCell>
      </root>
    </mxGraphModel>
  </diagram>
</mxfile>
